<svg xmlns="http://www.w3.org/2000/svg" viewBox="0 0 464 261"><defs><style>.cls-1{fill:#e4b800;}</style></defs><g id="Layer_2" data-name="Layer 2"><g id="Layer_1-2" data-name="Layer 1"><path class="cls-1" d="M303,130.5a92.11,92.11,0,0,0-1.32-15.5H75.5A74.58,74.58,0,0,0,1,189.38l-1,70.9,31,.44,1-71v-.22A43.54,43.54,0,0,1,75.5,146H301.68A92.11,92.11,0,0,0,303,130.5Z"/><path class="cls-1" d="M301.68,115a91.66,91.66,0,0,1,0,31H75.5A43.54,43.54,0,0,0,32,189.5v.22l-1,71-31-.44,1-70.9A74.58,74.58,0,0,1,75.5,115H301.68M40,189.77v-.24"/><path class="cls-1" d="M416,7.63H385v64a43.56,43.56,0,0,1-35.94,42.72,139.59,139.59,0,0,1,.12,31.28A74.61,74.61,0,0,0,416,71.5Z"/><path class="cls-1" d="M416,7.63V71.5a74.61,74.61,0,0,1-66.82,74.11,139.59,139.59,0,0,0-.12-31.28A43.56,43.56,0,0,0,385,71.61v-64h31"/><path class="cls-1" d="M341.55,141.31c0-.06,0-.11,0-.17q.27-3.49.38-7V134c0-1.18.05-2.35.05-3.52s0-2.43-.05-3.66l0-.74c0-1-.08-2-.13-3,0-.27,0-.53-.05-.8q-.09-1.44-.21-2.88c0-.31,0-.61-.08-.91-.08-.89-.17-1.79-.27-2.68A130.52,130.52,0,0,0,83.11,107h31.7a99.51,99.51,0,0,1,193.38,0h.23l.93,5.43c.58,3.13,1,6.32,1.28,9.55v.11c.11,1.32.2,2.65.26,4,0,.17,0,.35,0,.52.05,1.3.08,2.6.08,3.91s0,2.61-.08,3.91c0,.17,0,.35,0,.52-.06,1.33-.15,2.66-.26,4V139c-.27,3.23-.7,6.42-1.28,9.55l-.93,5.43h-.23a99.51,99.51,0,0,1-193.38,0H83.11a130.51,130.51,0,0,0,258.13-9.45C341.36,143.48,341.46,142.39,341.55,141.31Z"/><circle class="cls-1" cx="16.5" cy="100.5" r="16.5"/><circle class="cls-1" cx="447.5" cy="24.5" r="16.5"/></g></g></svg>